<?xml version="1.0" encoding="utf-8"?>
<?xml-stylesheet type="text/css" href="../css/boy.css" ?>
<svg version="1.1" xmlns="http://www.w3.org/2000/svg" xmlns:xlink="http://www.w3.org/1999/xlink" x="0px" y="0px"
	 viewBox="0 0 750 750" style="enable-background:new 0 0 750 750;" xml:space="preserve">

<g id="boy">
	<rect id="XMLID_105_" x="51" y="418.9" class="st0" width="4.1" height="28.2"/>
	<g id="XMLID_24_">
		<path id="XMLID_26_" class="st1" d="M23.6,410.9c0.5,0.4,0.9,0.9,1.6,1.4C24.4,411.9,24,411.5,23.6,410.9z"/>
		<path id="XMLID_27_" class="st1" d="M27.5,413.1c-0.3-0.1-0.5-0.1-0.8-0.2c0.4,0.1,0.8,0.2,1.2,0.2
			C27.8,413.1,27.7,413.1,27.5,413.1z"/>
		<path id="XMLID_29_" class="st1" d="M31.9,412.6c0,0,0.1,0,0.1,0C32,412.6,32,412.6,31.9,412.6z"/>
		<path id="XMLID_30_" class="st1" d="M32.2,412.5c0.7-0.2,1.4-0.5,1.9-0.9C33.6,412,33,412.3,32.2,412.5z"/>
	</g>
	<g id="XMLID_41_">
		<path id="XMLID_103_" class="st2" d="M138.9,598.1l-8.8,0.4c1.2-1,2.1-2.1,2.9-3.2c7.6-10.4,2.9-25.2,1.1-28.4
			c-0.9-2.3-4.3-5.6-5.7-6.6l9.3-0.6l0.3,7.2c0,0,0.3,11.9,0.8,24.1C138.7,593.4,138.8,595.8,138.9,598.1z"/>
		<path id="XMLID_102_" class="st3" d="M113.1,582.8l-1.2-26.8c0,0,23.9-2.5,25.1,22.8c1.4,20.7-14.2,26.4-22.8,25.6L113.1,582.8z"
			/>
		<path id="XMLID_101_" class="st4" d="M109.4,556.3c0.9-0.1,1.8-0.3,2.7-0.4c0.8,16.1,1.6,32.2,2.4,48.4c-1,0-1.9,0-2.9,0
			C110.9,588.3,110.2,572.3,109.4,556.3z"/>
		<path id="XMLID_100_" class="st5" d="M138.5,591l-3.3,0.1c3-7,2.1-16.4-1-23.9l3.6-0.2L138.5,591z"/>
		<path id="XMLID_19_" class="st6" d="M107.5,337.3l66,36.7l26.2-10.7l33.1,0l28.9,11.8l67.8-37.8l15.1,27.2l-75.9,42.2l-1.7,11
			l109.8,0.1l-0.2,31.3l-110.4-0.3l1.3,16.2l83.6,41.2l-14,28.1l-66-32.2l0.9,6.8l-1.2,30.3c-13.2,4-31.1,8.1-52.5,9
			c-22.5,1-41.5-1.8-55.3-4.9c-0.3-5.8-0.6-11.5-0.9-17.3c-0.4-8.7-0.9-17.4-0.9-17.8l0.5-7L94,534.3l-13.8-28.1l82.6-40.7
			l-0.4-16.5H55v-31.3c35,0,71.2,0.1,106.8,0.1c-0.3-5.1-0.5-10.2-0.8-15.3l-68.7-38L107.5,337.3z"/>
		<path id="XMLID_91_" class="st7" d="M199.9,364.4l32.7,0.2c0,0,1.5,71.4-16.3,106.9C198.8,443.7,199.9,364.4,199.9,364.4z"/>
		<polygon id="XMLID_89_" class="st8" points="200,362.1 216.4,363.3 232.7,362 232.7,364.3 222.9,374.1 216.4,363.7 209.9,374.2
			200,364.5 		"/>
		<path id="XMLID_90_" class="st9" d="M213.7,376.2c-0.3,0-0.6,0-0.9,0l-0.6-5.9l4.1-6.6l4.1,6.6l-0.6,5.9l-1.1,0l6,63
			c-2.9,13.1-6.2,26.7-8.5,32.2c-1.9-6.3-5.8-19.7-8.7-33.4C209.6,417.5,211.7,396.8,213.7,376.2z"/>
		<path id="XMLID_92_" class="st10" d="M199.8,363.3L184,378.8l4.4,8.4l-7,4.6c11,31.6,22.3,60.4,34.9,79.9
			C209.3,449.8,199.9,410.8,199.8,363.3z"/>
		<path id="XMLID_93_" class="st10" d="M232.8,363.4l15.8,15.5l-4.2,8.4l6.7,4.4c-9.8,29-21.3,55.8-34.6,80.1
			C227.4,436.7,232.2,400.6,232.8,363.4z"/>
		<path id="XMLID_94_" class="st11" d="M120.4,520.8c-0.3-1-5.6-19.7,2.7-26.2c7.5-5.8,18.7-5.8,30.4,6.6
			c10.3,10.8,19.9,17.2,21,18.3c14.7,14.4,31,20.6,41.1,24.5c40.2,15.5,81.5,11.2,81.5,11.2l-1.5,47.4c0,0-20.2,9-77.9-10.4
			c0.2-16.8-8.7-32.3-23.2-40.3c-21.5,4.6-23.5,4.4-49.7,4c-3.4-3.2-7-7-10.6-11.6C127.6,535.8,123.3,527.5,120.4,520.8z"/>
		<path id="XMLID_96_" class="st2" d="M296.7,560.8l8.7,0.1c-1.2,1-2.2,2-3,3c-8.1,9.8-4.4,24.7-2.8,27.9c0.7,2.4,3.9,5.8,5.2,6.9
			l-9.2,0.1l0.1-7.1c0,0,0.4-11.8,0.7-23.8C296.5,565.4,296.6,563.1,296.7,560.8z"/>
		<path id="XMLID_95_" class="st12" d="M138.8,602.5l-1.5-47.3c0,0,43.5,3.8,81.5-11.1c38.8-16.7,55.9-41.7,72.6-51.1
			c18.8-7.2,26.4,3.8,24.7,20.2C301.7,574.1,210.1,604.7,138.8,602.5z"/>
		<path id="XMLID_97_" class="st3" d="M321.2,577.5l-0.4,26.6c0,0-23.8,1-23.3-24c-0.1-20.5,15.6-25.2,24-23.9L321.2,577.5z"/>
		<path id="XMLID_98_" class="st4" d="M323.2,603.8c-0.9,0.1-1.8,0.1-2.7,0.2c0.2-16,0.4-31.9,0.6-47.9c1,0.1,1.9,0.1,2.9,0.2
			C323.7,572.2,323.4,588,323.2,603.8z"/>
		<path id="XMLID_99_" class="st5" d="M296.7,567.8l3.3,0.1c-3.4,6.8-3.1,16.1-0.5,23.6l-3.6,0L296.7,567.8z"/>
		<path id="XMLID_104_" class="st13" d="M299.5,554.3"/>

			<rect id="XMLID_106_" x="96.4" y="335.6" transform="matrix(-0.8714 -0.4905 0.4905 -0.8714 12.5662 702.6306)" class="st0" width="3.9" height="28.1"/>

			<rect id="XMLID_107_" x="82.9" y="507" transform="matrix(0.9028 -0.4301 0.4301 0.9028 -215.7786 87.1905)" class="st0" width="4.1" height="27.7"/>

			<rect id="XMLID_108_" x="336.6" y="335.8" transform="matrix(0.8774 -0.4797 0.4797 0.8774 -126.2546 205.2589)" class="st0" width="4" height="27.8"/>
		<rect id="XMLID_109_" x="376.8" y="419.2" class="st0" width="4" height="27.7"/>

			<rect id="XMLID_110_" x="343.6" y="506.5" transform="matrix(-0.9055 -0.4243 0.4243 -0.9055 436.9741 1140.7516)" class="st0" width="3.8" height="30.4"/>
		<path id="XMLID_21_" class="st14" d="M200.6,362.2l0-7.2c10.3,5.4,20.7,5,31.2-1l0.1,8.2C221.5,363.6,211.2,363.8,200.6,362.2z"/>
		<path id="XMLID_72_" class="st15" d="M249.6,250.2c5.5,5.6,13.8,16.1,16.4,30.8c0.5,2.9,0.7,5.7,0.8,8.2c0.8,0.3,3.4,1.2,5.6,3.5
			c4.1,4.3,5.2,11.6,3.3,17c-2.3,6.6-8.8,9.7-11.2,10.9c-9.3,23.3-26.3,40.6-49.5,41.6c-46.8-11.5-40-34-46.4-41.8
			c-20.4-5.8-13.9-31.6-1.9-30c-0.2-14.8,3.3-21.8,7.7-27.2C215.5,266.6,234.3,259.1,249.6,250.2z"/>
		<path id="XMLID_1_" class="st15" d="M249.6,250.2c5.5,5.6,13.8,16.1,16.4,30.8c0.5,2.9,0.7,5.7,0.8,8.2c0.8,0.3,3.4,1.2,5.6,3.5
			c4.1,4.3,5.2,11.6,3.3,17c-2.3,6.6-8.8,9.7-11.2,10.9c-9.3,23.3-26.3,40.6-49.5,41.6c-46.8-11.5-40-34-46.4-41.8
			c-20.4-5.8-13.9-31.6-1.9-30c-0.2-14.8,3.3-21.8,7.7-27.2C215.5,266.6,234.3,259.1,249.6,250.2z"/>
		<ellipse id="XMLID_69_" class="st16" cx="192" cy="298.9" rx="3.4" ry="3.5"/>
		<path id="XMLID_66_" class="st16" d="M197.4,288.5l-8.9,0.5c-1.5,0.1-2.8-1.1-2.8-2.6c-0.1-1.5,1.1-2.8,2.6-2.8l8.9-0.5
			c1.5-0.1,2.8,1.1,2.8,2.6C200,287.1,198.9,288.4,197.4,288.5z"/>
		<path id="XMLID_64_" class="st17" d="M267.2,301.4c-2.2-1.2-2.2-2.5-1.9-3.4c0.5-1.7,3.9-5.2,8.6-0.3c0.1,5.6,0.1,9.9-3.5,14.2
			c-3.7,4.7-8.1,0.2-4.2-2.4C267.9,307.3,268.2,304.7,267.2,301.4z"/>
		<path id="XMLID_58_" class="st18" d="M165.8,290.5c0.8,0.1-0.5-14.2,8.9-26.7c39.1,1.7,52.2-2.8,74.8-12.7
			c16.6,12.1,18,37.9,18,37.9s23.4-51.5-35.2-70.1c-0.3-3.4,4.1-13.3-3.8-16.6c-2.1,7.3-4.4,12.8-7.8,15.4c-0.6-1,2.7-10.5-4-11.2
			c-11,14-13.8,10.3-33.1,20.8C149.4,252.9,164.5,290.3,165.8,290.5z"/>
		<path id="XMLID_57_" class="st19" d="M166.7,302.8c2.2-1.2,2.2-2.5,1.9-3.4c-0.5-1.7-3.9-5.2-8.6-0.3c-0.1,5.6-0.1,9.9,3.5,14.2
			c3.7,4.7,8.1,0.2,4.2-2.4C166,308.7,165.7,306.1,166.7,302.8z"/>
		<path id="XMLID_73_" class="st7" d="M193,327.9l46.2,0.2c0,0-2,15.2-22.9,17.2C197,344.9,193,327.9,193,327.9z"/>

			<ellipse id="XMLID_67_" transform="matrix(0.9891 0.1472 -0.1472 0.9891 46.5303 -31.3698)" class="st16" cx="235.2" cy="298.7" rx="3.4" ry="3.5"/>
		<path id="XMLID_65_" class="st16" d="M242,289.1l-8.9-0.8c-1.5-0.1-2.6-1.5-2.4-2.9c0.1-1.5,1.5-2.6,2.9-2.4l8.9,0.8
			c1.5,0.1,2.6,1.5,2.4,2.9C244.8,288.2,243.5,289.3,242,289.1z"/>
	</g>
</g>
<g id="hand6">
	<path id="XMLID_10_" class="st14" d="M353.1,511.2l1.8,0.9c0,0,0.9-0.4,2.3,0.1c1.4-1.2,6.4-5,7.1-4.7l24.7,1.7
		c0.8,0.5-1.1,6.9-3.9,5.9l-9.1-0.5c-4.2,2.7-3.1,4.5-0.4,6l11.8,1c0,0,4.6-4.6,9.6-6.6c3.7-1.5,8.2-0.8,8.2-0.8l-15.6,11.1l1.9,0.3
		L407,515l4.8,2.1l-20.5,14l-45.2-1.6l-1.7-0.8L353.1,511.2z"/>
</g>
<g id="hand5">
	<path id="XMLID_111_" class="st14" d="M336,340.7l8.8-3.2c1.4-1.9,6-4.5,7.3-4.7l24.5,1.7c0.3,2-0.3,5.1-3.6,5.9
		c-3.9,1-9.5-0.3-9.5-0.3c-2.8,0.9-4.2,3.2-0.7,5.7l12.1,1.2c3.9-2.8,7.8-5.6,10.4-6.8c2.6-0.7,5.2-1.1,7.5-0.4
		c-2.6,1.8-15.8,11.2-15.8,11.2l1.9,0.2l15.7-11l4.8,2l-20.6,14.2l-33.1-1.2l-1.4,0.8L336,340.7z"/>
</g>
<g id="hand4">
	<path id="XMLID_2_" class="st14" d="M380.9,423.3c0,0,4-1.8,5.7-4.5c0.8-3.9,1.5-6.3,1-10.6c-1.1-8.6-1.9-10.9-2.2-14.7
		c0.5-1.8,2.5-2.3,4.2-1.2c3.4,2.1,3.7,6.6,5.5,16.3c2.4,3,4.5,4.8,10.2,4.9c3.2-0.8,3.4-1.7,4.9-3.2c7.5-9.5,12.3-15.2,14.6-17.9
		c3.7-1.7,3.4,1.8,3.1,2.4c-6.5,10.3-9.2,16.5-21.6,35.9c-1.1,1.7-3.7,5.9-8.8,9.1c-3.5,2.2-6.6,2.9-7.7,3.1c-3.9,0.8-7.2,0.4-9.1,0
		C380.8,436.4,380.9,429.9,380.9,423.3z"/>
	<path id="XMLID_3_" class="st20" d="M395.3,408.6c0.4-0.9,8.8-0.1,8.8-0.1l3.6-6.5l-4.5-7.3c0-2,1.4-3.4,3.7-2.4l4.2,6.5l0.1-5
		c0.7-2.4,3.8-2.6,4.5-0.1l0,9.8l-6.3,7.8c-1,0.8-1.5,2.1-5.1,2.3C399.1,413.4,395.8,410.2,395.3,408.6z"/>
</g>
<g id="hand3">
	<path id="XMLID_17_" class="st14" d="M78.1,511.5c0,0-0.2,0.1-0.5,0.3c-0.2,0.1-0.5,0.2-0.6,0.3c0,0-1.3,0.9-2.2,0.1
		c-2-1.7-6.5-4.7-7.3-4.6c-5.6,0.3-22.6,1.9-24.7,1.8c-0.5,0,0.6,6.1,4.7,5.9c4-0.2,8.7-0.4,8.7-0.4c3.4,2.1,3.4,4.1-0.4,6
		l-11.5,0.9c0,0-8-8-14.4-7.5c-0.7-0.1-1.3,0-3.2,0.2c-0.7,1.8,15.5,11.1,15.5,11.1l-1.8,0.3l-15.6-11L20,517l20.5,14
		c0,0,15.2,5.5,45.4-1.5c0.1,0,0.9-0.5,0.9-0.5S78.9,511.1,78.1,511.5z"/>
</g>
<g id="hand2">
	<path id="XMLID_32_" class="st14" d="M8.1,392.1c2.3,2.6,7,8.3,14.6,17.9c0.2,0.3,0.5,0.5,0.6,0.7l0.2,0.2c0,0,0,0,0.1,0
		c0.5,0.5,0.9,1,1.6,1.4c0.4,0.2,0.9,0.5,1.6,0.6c0.2,0.1,0.5,0.1,0.8,0.2c0.2,0,0.3,0,0.5,0c0.2,0,0.4,0,0.7,0
		c1.2,0,2.3-0.3,3.3-0.6c0,0,0.1,0,0.1,0c0.1,0,0.1,0,0.2-0.1c0.7-0.2,1.4-0.5,1.9-0.9c1.8-1,2.9-2.2,3.3-3.1
		c0.1-0.1,0.2-0.2,0.2-0.3c1.8-9.8,2.1-14.2,5.5-16.3c1.8-1.1,3.8-0.6,4.2,1.2c-0.3,3.8-1.1,6.1-2.2,14.7c-0.5,4.2,0.2,6.7,1,10.6
		c1.7,2.7,5.7,4.5,5.7,4.5c0,6.6,0.1,13.1,0.1,19.7c-1.9,0.4-5.2,0.8-9.1,0c-1.1-0.2-4.2-0.9-7.7-3.1c-5.1-3.1-7.7-7.4-8.8-9.1
		c-12.3-19.4-15-25.6-21.6-35.9C4.6,393.8,4.4,390.3,8.1,392.1z"/>
	<path id="XMLID_33_" class="st20" d="M34.2,411.6c-0.6,0.3-1.2,0.6-1.9,0.9c-0.1,0-0.1,0-0.2,0.1c0,0-0.1,0-0.1,0
		c-1,0.3-2.1,0.5-3.3,0.6c-0.2,0-0.4,0-0.7,0c-0.5,0-0.9-0.1-1.2-0.2c-0.7-0.2-1.2-0.4-1.6-0.6c-0.7-0.4-1.1-1-1.6-1.4
		c0,0,0,0-0.1,0l-0.2-0.2l-6.1-7.6l0-9.8c0.6-2.5,3.7-2.3,4.5,0.1l0.1,5l4.2-6.5c2.3-1,3.7,0.5,3.7,2.4l-4.5,7.3l3.6,6.5
		c0,0,8.3-0.8,8.8,0.1c0,0.1-0.1,0.2-0.1,0.3C37.1,409.4,35.9,410.6,34.2,411.6z"/>
</g>
<g id="hand1">
	<path id="XMLID_22_" class="st14" d="M100.8,340.8l-8.8-3.2c-1.4-1.9-6-4.5-7.3-4.7l-24.5,1.7c-0.3,2,0.3,5.1,3.6,5.9
		c3.9,1,9.5-0.3,9.5-0.3c2.8,0.9,4.2,3.2,0.7,5.7L61.9,347c-3.9-2.8-7.8-5.6-10.4-6.8c-2.6-0.7-5.2-1.1-7.5-0.4
		c2.6,1.8,15.8,11.2,15.8,11.2l-1.9,0.2l-15.7-11l-4.8,2L58,356.4l33.1-1.2l1.4,0.8L100.8,340.8z"/>
</g>
</svg>
