<?xml version="1.0" encoding="utf-8"?>
<?xml-stylesheet type="text/css" href="../css/logo9.css" ?>
<svg version="1.1" id="viedo_editor" xmlns="http://www.w3.org/2000/svg" xmlns:xlink="http://www.w3.org/1999/xlink" x="0px"
	 y="0px" viewBox="0 0 250 250" style="enable-background:new 0 0 250 250;" xml:space="preserve">

<ellipse id="circle" class="st0" cx="116" cy="118.9" rx="87.3" ry="82.5"/>
<g id="rest">
	<path class="st1" d="M172,135v-22h-17.4c-0.5-1-1-2.8-1.6-4.3l13.3-9.6l-12.5-17.2l-13.6,9.9c-1.2-1-2.4-1.9-3.7-2.7l5.2-15.9
		l-20.2-6.6l-5.1,15.5c-1.3-0.1-2.5-0.2-3.8-0.2c-0.4,0-0.7,0-1.1,0l-5-15.4l-20.2,6.6L91,87.7c-1.6,0.9-3.2,2-4.7,3.1L74.1,82
		L61.6,99.2l11.2,7.9c-0.9,2-1.7,3.9-2.3,5.9H57v22h12.7c0.5,2,1.2,4.5,2,6.7L61.6,149l12.5,17.2l9.8-7.1c1.9,1.6,3.9,3.1,6.1,4.4
		L86.2,175l20.2,6.6l3.9-11.9c0.7,0,1.5,0.1,2.2,0.1c1.7,0,3.3-0.1,4.9-0.3l3.9,12.1l20.2-6.6l-4.2-13c1.8-1.2,3.4-2.6,5-4l11.4,8.3
		l12.5-17.2l-12.3-8.8c0.6-1.7,1.1-3.2,1.4-5.2H172z"/>
	<ellipse id="XMLID_220_" class="st1" cx="113" cy="125.6" rx="44.4" ry="43.6"/>
	<ellipse id="XMLID_222_" class="st2" cx="113.4" cy="125.8" rx="32.7" ry="34"/>
</g>
<polygon id="play" class="st3" points="98,103.6 133.6,128.7 98,147.3 "/>
<g id="pause">
	<rect id="XMLID_224_" x="116" y="141.7" class="st3" width="3.2" height="11.7"/>
	<rect id="XMLID_225_" x="121.9" y="141.7" class="st3" width="3.2" height="11.7"/>
</g>
</svg>
