<?xml version="1.0" encoding="utf-8"?>
<?xml-stylesheet type="text/css" href="../css/logo5.css" ?>
<svg version="1.1" id="time" xmlns="http://www.w3.org/2000/svg" xmlns:xlink="http://www.w3.org/1999/xlink" x="0px" y="0px"
	 viewBox="0 0 250 250" style="enable-background:new 0 0 250 250;" xml:space="preserve">

<ellipse id="circle" class="st0" cx="125.4" cy="125.7" rx="87.3" ry="82.5"/>
<g id="cliock">
	<path id="XMLID_75_" class="st1" d="M183,137v-22h-17.4c-0.5-1-1-2.9-1.6-4.4l13.3-9.6l-12.5-17.2l-13.6,9.9
		c-1.2-1-2.4-1.9-3.7-2.7l5.2-15.9l-20.2-6.6l-5.1,15.5c-1.3-0.1-2.5-0.2-3.8-0.2c-0.4,0-0.7,0-1.1,0l-5-15.4l-20.2,6.6l4.7,14.5
		c-1.6,0.9-3.2,2-4.7,3.1l-12.1-8.8l-12.5,17.2l11.2,8c-0.9,2-1.7,3.9-2.3,5.9H68v22h12.7c0.5,2,1.2,4.5,2,6.7L72.7,151l12.5,17.2
		L95,161c1.9,1.6,3.9,3.1,6.1,4.4l-3.7,11.5l20.2,6.6l3.9-11.9c0.7,0,1.5,0.1,2.2,0.1c1.7,0,3.3-0.1,4.9-0.3l3.9,12.1l20.2-6.6
		l-4.2-13c1.8-1.2,3.4-2.6,5-4l11.4,8.3l12.5-17.2l-12.3-8.8c0.6-1.7,1.1-3.1,1.4-5.1H183z"/>
	<ellipse id="XMLID_35_" class="st1" cx="124" cy="127.5" rx="44.4" ry="43.6"/>
	<ellipse id="XMLID_76_" class="st2" cx="124.4" cy="127.7" rx="32.9" ry="31.4"/>
	<path id="XMLID_122_" class="st3" d="M139,124h-12.5c-0.7-1-1.6-1-2.7-1c-2.1,0-4,1.4-4,3.3c0,1.1,1.2,2,1.2,2.6V141h4v-11.8
		c1-0.3,1.8-1.2,2.1-1.2H139V124z"/>
	<path id="XMLID_138_" class="st4" d="M126,127.7c0.3-0.4,0.4-0.9,0.4-1.5c0-1.5-1.2-2.7-2.8-2.7c-0.5,0-1,0.2-1.5,0.4l-11.7-11.7
		l-0.6,0.6l11.6,11.6c-0.4,0.5-0.7,1.1-0.7,1.8c0,1.5,1.2,2.7,2.8,2.7c0.7,0,1.3-0.2,1.8-0.6l1.5,1.5l0.6-0.6L126,127.7z
		 M123.6,127.8c-0.9,0-1.7-0.8-1.7-1.7c0-0.9,0.8-1.7,1.7-1.7c0.9,0,1.7,0.8,1.7,1.7C125.3,127.1,124.6,127.8,123.6,127.8z"/>
</g>
<g id="dots">
	<ellipse id="XMLID_134_" class="st0" cx="136.9" cy="103.3" rx="1.9" ry="1.9"/>
	<ellipse id="XMLID_133_" class="st0" cx="146.6" cy="113" rx="1.9" ry="1.9"/>
	<ellipse id="XMLID_132_" class="st0" cx="124.1" cy="100.2" rx="1.9" ry="1.9"/>
	<ellipse id="XMLID_131_" class="st0" cx="150.5" cy="126" rx="1.9" ry="1.9"/>
	<ellipse id="XMLID_130_" class="st0" cx="146.6" cy="139.4" rx="1.9" ry="1.9"/>
	<ellipse id="XMLID_129_" class="st0" cx="136.9" cy="148.2" rx="1.9" ry="1.9"/>
	<ellipse id="XMLID_128_" class="st0" cx="124.1" cy="151.9" rx="1.9" ry="1.9"/>
	<ellipse id="XMLID_127_" class="st0" cx="111.1" cy="148.2" rx="1.9" ry="1.9"/>
	<ellipse id="XMLID_126_" class="st0" cx="101.4" cy="139.6" rx="1.9" ry="1.9"/>
	<ellipse id="XMLID_125_" class="st0" cx="98.3" cy="126" rx="1.9" ry="1.9"/>
	<ellipse id="XMLID_124_" class="st0" cx="101.4" cy="113" rx="1.9" ry="1.9"/>
	<ellipse id="XMLID_123_" class="st0" cx="111.1" cy="103.3" rx="1.9" ry="1.9"/>
</g>
</svg>
