<?xml version="1.0" encoding="utf-8"?>
<?xml-stylesheet type="text/css" href="../css/logo8.css" ?>
<svg version="1.1" id="target" xmlns="http://www.w3.org/2000/svg" xmlns:xlink="http://www.w3.org/1999/xlink" x="0px" y="0px"
	 viewBox="0 0 250 250" style="enable-background:new 0 0 250 250;" xml:space="preserve">

<ellipse id="circle" class="st0" cx="118.7" cy="112.3" rx="87.3" ry="82.5"/>
<path id="circleCentre" class="st1" d="M118.7,124.7L118.7,124.7c-5.2,0-9.5-4.3-9.5-9.5v0c0-5.2,4.3-9.5,9.5-9.5h0
	c5.2,0,9.5,4.3,9.5,9.5v0C128.2,120.4,123.9,124.7,118.7,124.7z"/>
<g id="arrows">
	<path id="XMLID_12_" class="st1" d="M92.4,122.7H56.8c-4.1,0-7.5-3.4-7.5-7.5v0c0-4.1,3.4-7.5,7.5-7.5h35.6c4.1,0,7.5,3.4,7.5,7.5
		v0C99.9,119.3,96.5,122.7,92.4,122.7z"/>
	<path id="XMLID_13_" class="st1" d="M183.1,121.4h-37.2c-4.1,0-7.5-3.4-7.5-7.5v0c0-4.1,3.4-7.5,7.5-7.5h37.2
		c4.1,0,7.5,3.4,7.5,7.5v0C190.6,118.1,187.2,121.4,183.1,121.4z"/>
	<path id="XMLID_14_" class="st1" d="M126.2,138v36.7c0,4.1-3.4,7.5-7.5,7.5h0c-4.1,0-7.5-3.4-7.5-7.5V138c0-4.1,3.4-7.5,7.5-7.5h0
		C122.8,130.5,126.2,133.9,126.2,138z"/>
	<path id="XMLID_15_" class="st1" d="M127.1,47v42.7c0,4.1-3.4,7.5-7.5,7.5h0c-4.1,0-7.5-3.4-7.5-7.5V47c0-4.1,3.4-7.5,7.5-7.5h0
		C123.7,39.5,127.1,42.9,127.1,47z"/>
</g>
</svg>
