<?xml version="1.0" encoding="utf-8"?>
<?xml-stylesheet type="text/css" href="../css/logo2.css" ?>
<svg version="1.1" id="html" xmlns="http://www.w3.org/2000/svg" xmlns:xlink="http://www.w3.org/1999/xlink" x="0px" y="0px"
	 viewBox="0 0 250 250" style="enable-background:new 0 0 250 250;" xml:space="preserve">

<ellipse id="circle" class="st0" cx="125.7" cy="124.9" rx="87.3" ry="82.5"/>
<g id="paper">
	<path id="XMLID_303_" class="st1" d="M157.1,58.3l23.6,21.9l0.4,100.4c-0.2,1.9-0.8,3.3-2.8,4.4H81c-2,0-3.3-1.3-3.6-3.2l0.4-120.3
		c0-1.5,0.7-2.5,2.3-2.8L157.1,58.3z"/>
	<g id="XMLID_276_">
		<path id="XMLID_277_" class="st0" d="M97.1,170.4v-18.3h2.5v7.5h9.7v-7.5h2.5v18.3h-2.5v-8.6h-9.7v8.6H97.1z"/>
		<path id="XMLID_294_" class="st0" d="M120.6,170.4v-16.1h-6.1v-2.2h14.7v2.2h-6.2v16.1H120.6z"/>
		<path id="XMLID_296_" class="st0" d="M131.7,170.4v-18.3h3.7l4.4,13l0.9,2.7c0.2-0.7,0.5-1.7,1-2.9l4.5-12.7h3.3v18.3h-2.4v-15.3
			l-5.4,15.3h-2.2l-5.4-15.6v15.6H131.7z"/>
		<path id="XMLID_305_" class="st0" d="M153.2,170.4v-18.3h2.5v16.1h9.2v2.2H153.2z"/>
	</g>
	<path id="XMLID_253_" class="st2" d="M157.1,58.1L180.7,80c-7.8-0.1-15.7-0.2-23.5-0.2C157.1,72.5,157.1,65.3,157.1,58.1z"/>
	<g id="XMLID_272_">
		<path id="XMLID_301_" class="st0" d="M106,106.3v-3.6l17-8.8v3.8l-13.5,6.8l13.5,6.8v3.8L106,106.3z"/>
		<path id="XMLID_299_" class="st0" d="M125,120.5l7.5-32.4h2.6l-7.5,32.4H125z"/>
		<path id="XMLID_297_" class="st0" d="M154,106.3l-17,8.9v-3.8l13.5-6.8L137,97.7v-3.8l17,8.8V106.3z"/>
	</g>
</g>
</svg>
