<?xml version="1.0" encoding="utf-8"?>
<?xml-stylesheet type="text/css" href="../css/logo7.css" ?>
<svg version="1.1" id="desktop" xmlns="http://www.w3.org/2000/svg" xmlns:xlink="http://www.w3.org/1999/xlink" x="0px" y="0px"
	 viewBox="0 0 250 250" style="enable-background:new 0 0 250 250;" xml:space="preserve">

<ellipse id="circle" class="st0" cx="126.4" cy="114.6" rx="83.4" ry="78.8"/>
<path id="disktop" class="st1" d="M159,147V72H64v75h32v10h-8v10h46v-10h-9v-10H159z M72,135V79h81v56H72z"/>
<path id="phone" class="st2" d="M189,93.6c0-3.1-2.5-5.6-5.6-5.6h-42.8c-3.1,0-5.6,2.5-5.6,5.6v64.8c0,3.1,2.5,5.6,5.6,5.6h42.8
	c3.1,0,5.6-2.5,5.6-5.6V93.6z M162.2,157.7c-2.3,0-4.2-1.9-4.2-4.1c0-2.3,1.9-4.1,4.2-4.1s4.2,1.9,4.2,4.1
	C166.5,155.9,164.6,157.7,162.2,157.7z M181,147h-36V96h36V147z"/>
</svg>
