<?xml version="1.0" encoding="utf-8"?>
<?xml-stylesheet type="text/css" href="../css/logo3.css" ?>
<svg version="1.1" xmlns="http://www.w3.org/2000/svg" xmlns:xlink="http://www.w3.org/1999/xlink" x="0px" y="0px"
	 viewBox="0 0 250 250" style="enable-background:new 0 0 250 250;" xml:space="preserve">

<g id="circle_1_">
	<ellipse id="circle" class="st0" cx="125.5" cy="124.9" rx="87.3" ry="82.5"/>
</g>
<g id="css">
	<path id="XMLID_246_" class="st1" d="M157.1,59.3l23.6,21.9l0.4,100.4c-0.2,1.9-0.8,3.3-2.8,4.4H81c-2,0-3.3-1.3-3.6-3.2l0.4-120.3
		c0-1.5,0.7-2.5,2.3-2.8L157.1,59.3z"/>
	<g id="XMLID_279_">
		<path id="XMLID_280_" class="st0" d="M100.5,106.9v-3.6l17-8.8v3.8l-13.5,6.8l13.5,6.8v3.8L100.5,106.9z"/>
		<path id="XMLID_284_" class="st0" d="M119.5,121.1l7.5-32.4h2.6l-7.5,32.4H119.5z"/>
		<path id="XMLID_286_" class="st0" d="M148.5,106.9l-17,8.9V112l13.5-6.8l-13.5-6.8v-3.8l17,8.8V106.9z"/>
		<path id="XMLID_288_" class="st0" d="M113.1,164.9l3.1,0.5c-0.4,2.7-1.3,4.8-2.7,6.2c-1.4,1.4-3.2,2.1-5.2,2.1c-2.4,0-4.5-1-6-3
			c-1.6-2-2.4-5-2.4-8.9c0-4,0.8-6.9,2.4-8.9c1.6-2,3.6-3,6.1-3c1.9,0,3.6,0.6,4.9,1.8c1.3,1.2,2.2,3,2.5,5.4l-3.1,0.6
			c-0.3-1.5-0.8-2.7-1.6-3.4c-0.7-0.8-1.6-1.1-2.7-1.1c-1.6,0-2.8,0.7-3.9,2.1c-1,1.4-1.5,3.6-1.5,6.6c0,3.1,0.5,5.3,1.5,6.7
			c1,1.4,2.2,2.1,3.8,2.1c1.2,0,2.2-0.5,3.1-1.4C112.3,168.3,112.9,166.9,113.1,164.9z"/>
		<path id="XMLID_290_" class="st0" d="M117.7,166.4l3.1-0.6c0.2,1.6,0.7,2.8,1.5,3.6c0.8,0.8,1.9,1.2,3.3,1.2c1.4,0,2.4-0.3,3.2-1
			c0.7-0.7,1.1-1.5,1.1-2.6c0-0.9-0.3-1.6-1-2.1c-0.4-0.3-1.5-0.8-3.2-1.3c-2.5-0.8-4.1-1.4-4.9-1.9c-0.8-0.5-1.5-1.2-1.9-2.1
			c-0.5-0.9-0.7-1.9-0.7-3c0-1.9,0.6-3.5,1.9-4.7c1.2-1.2,3-1.8,5.2-1.8c1.4,0,2.6,0.2,3.7,0.7c1,0.5,1.9,1.2,2.4,2
			c0.6,0.8,0.9,2,1.2,3.6l-3.1,0.5c-0.3-2.5-1.6-3.7-4-3.7c-1.4,0-2.4,0.3-3.1,0.8c-0.7,0.5-1,1.2-1,2.1c0,0.8,0.3,1.5,1,2
			c0.4,0.3,1.5,0.7,3.4,1.4c2.6,0.8,4.3,1.5,5.1,2c0.8,0.5,1.4,1.2,1.8,2c0.4,0.9,0.6,1.9,0.6,3c0,2.2-0.7,3.9-2.1,5.3
			c-1.4,1.3-3.3,2-5.6,2C121,173.8,118.4,171.3,117.7,166.4z"/>
		<path id="XMLID_292_" class="st0" d="M135.6,166.4l3.1-0.6c0.2,1.6,0.7,2.8,1.5,3.6c0.8,0.8,1.9,1.2,3.3,1.2c1.4,0,2.4-0.3,3.2-1
			c0.7-0.7,1.1-1.5,1.1-2.6c0-0.9-0.3-1.6-1-2.1c-0.4-0.3-1.5-0.8-3.2-1.3c-2.5-0.8-4.1-1.4-4.9-1.9c-0.8-0.5-1.5-1.2-1.9-2.1
			c-0.5-0.9-0.7-1.9-0.7-3c0-1.9,0.6-3.5,1.9-4.7c1.2-1.2,3-1.8,5.2-1.8c1.4,0,2.6,0.2,3.7,0.7c1,0.5,1.9,1.2,2.4,2
			c0.6,0.8,0.9,2,1.2,3.6l-3.1,0.5c-0.3-2.5-1.6-3.7-4-3.7c-1.4,0-2.4,0.3-3.1,0.8c-0.7,0.5-1,1.2-1,2.1c0,0.8,0.3,1.5,1,2
			c0.4,0.3,1.5,0.7,3.4,1.4c2.6,0.8,4.3,1.5,5.1,2c0.8,0.5,1.4,1.2,1.8,2c0.4,0.9,0.6,1.9,0.6,3c0,2.2-0.7,3.9-2.1,5.3
			c-1.4,1.3-3.3,2-5.6,2C138.9,173.8,136.3,171.3,135.6,166.4z"/>
	</g>
	<path id="XMLID_252_" class="st2" d="M157.1,59.1L180.7,81c-7.8-0.1-15.7-0.2-23.5-0.2C157.1,73.5,157.1,66.3,157.1,59.1z"/>
</g>
</svg>
