<?xml version="1.0" encoding="utf-8"?>
<?xml-stylesheet type="text/css" href="../css/logo2.css" ?>
<svg version="1.1" xmlns="http://www.w3.org/2000/svg" xmlns:xlink="http://www.w3.org/1999/xlink" x="0px" y="0px"
	 viewBox="0 0 250 250" style="enable-background:new 0 0 250 250;" xml:space="preserve">



<g id="circleM">
	<ellipse id="circle" class="st0" cx="125.5" cy="124.8" rx="87.3" ry="82.5"/>
</g>
<g id="AI">
	<polygon id="XMLID_247_" class="st1" points="64.3,77.2 107.2,76.8 119,89.5 119,158.2 63.4,158.8 	"/>
	<path id="XMLID_241_" class="st2" d="M106.9,89.8l12.3-0.1c0,0,0.1-0.1,0.1-0.1c-2.7-2.8-5.3-5.7-8-8.5c-1.4-1.4-2.7-2.9-4.1-4.3
		c-0.1,2.1-0.1,4.3-0.2,6.5C107,85.4,106.9,89.8,106.9,89.8z"/>
	<path id="XMLID_238_" class="st3" d="M119.3,89.7c-4.1,0-8.2,0-12.3,0c4.1,4.4,8.2,8.9,12.3,13.3C119.3,98.6,119.3,94.1,119.3,89.7
		z"/>
	<path id="XMLID_251_" class="st2" d="M87.7,142.5H63.6c-4.8,0-8.6-3.9-8.6-8.6v-1c0-4.8,3.9-8.6,8.6-8.6h24.1
		c4.8,0,8.6,3.9,8.6,8.6v1C96.4,138.6,92.5,142.5,87.7,142.5z"/>
	<g id="XMLID_254_">
		<path id="XMLID_255_" class="st1" d="M71.9,135.8l-1.4,4.2h-1.8l4.5-13.4h2.1l4.6,13.4h-1.8l-1.4-4.2H71.9z M76.3,134.5l-1.3-3.9
			c-0.3-0.9-0.5-1.7-0.7-2.4h0c-0.2,0.8-0.4,1.6-0.7,2.4l-1.3,3.9H76.3z"/>
		<path id="XMLID_258_" class="st1" d="M83.7,127.7c0,0.6-0.4,1.1-1.1,1.1c-0.6,0-1.1-0.5-1.1-1.1c0-0.6,0.5-1.1,1.1-1.1
			C83.3,126.6,83.7,127.1,83.7,127.7z M81.8,140v-9.6h1.7v9.6H81.8z"/>
	</g>
</g>
<g id="AE">
	<polygon id="XMLID_269_" class="st1" points="141.2,77.2 184.1,76.8 196,89.5 196,158.2 140.3,158.8 	"/>
	<path id="XMLID_268_" class="st4" d="M183.8,89.8l12.3-0.1c0,0,0.1-0.1,0.1-0.1c-2.7-2.8-5.3-5.7-8-8.5c-1.4-1.4-2.7-2.9-4.1-4.3
		c-0.1,2.1-0.1,4.3-0.2,6.5C183.9,85.4,183.8,89.8,183.8,89.8z"/>
	<path id="XMLID_267_" class="st3" d="M196.1,89.7c-4.1,0-8.2,0-12.3,0c4.1,4.4,8.2,8.9,12.3,13.3C196.1,98.6,196.1,94.1,196.1,89.7
		z"/>
	<path id="XMLID_266_" class="st4" d="M164.6,142.5h-24.1c-4.8,0-8.6-3.9-8.6-8.6v-1c0-4.8,3.9-8.6,8.6-8.6h24.1
		c4.8,0,8.6,3.9,8.6,8.6v1C173.2,138.6,169.4,142.5,164.6,142.5z"/>
	<g id="XMLID_261_">
		<path id="XMLID_262_" class="st1" d="M146.2,134.4l-1.1,3.4h-1.5l3.7-10.9h1.7l3.7,10.9h-1.5l-1.2-3.4H146.2z M149.8,133.3
			l-1.1-3.1c-0.2-0.7-0.4-1.4-0.6-2h0c-0.2,0.6-0.3,1.3-0.6,2l-1.1,3.2H149.8z"/>
		<path id="XMLID_265_" class="st1" d="M155,134.2c0,1.9,1.3,2.7,2.7,2.7c1,0,1.6-0.2,2.2-0.4l0.2,1c-0.5,0.2-1.4,0.5-2.6,0.5
			c-2.4,0-3.9-1.6-3.9-4c0-2.4,1.4-4.2,3.7-4.2c2.6,0,3.2,2.3,3.2,3.7c0,0.3,0,0.5,0,0.7H155z M159.1,133.2c0-0.9-0.4-2.3-2-2.3
			c-1.4,0-2.1,1.3-2.2,2.3H159.1z"/>
	</g>
</g>
</svg>
