<?xml version="1.0" encoding="utf-8"?>
<?xml-stylesheet type="text/css" href="../css/logo6.css" ?>
<svg version="1.1" id="style_guide" xmlns="http://www.w3.org/2000/svg" xmlns:xlink="http://www.w3.org/1999/xlink" x="0px"
	 y="0px" viewBox="0 0 250 250" style="enable-background:new 0 0 250 250;" xml:space="preserve">
<ellipse id="circle" class="st0" cx="125.5" cy="125.3" rx="87.3" ry="82.5"/>
<g id="paper">
	<polygon id="XMLID_70_" class="st1" points="104,68.2 161.9,67.6 178,84.7 178,177.3 103,178.1 	"/>
	<g id="XMLID_1_">
		<g id="XMLID_81_">
			<path id="XMLID_82_" class="st2" d="M113.9,103.9l-1.3,4.1h-1.7l4.4-13h2l4.4,13h-1.8l-1.4-4.1H113.9z M118.2,102.6l-1.3-3.7
				c-0.3-0.8-0.5-1.6-0.7-2.4h0c-0.2,0.8-0.4,1.6-0.7,2.4l-1.3,3.8H118.2z"/>
		</g>
		<rect id="XMLID_78_" x="124.6" y="95" class="st3" width="45.3" height="2.5"/>
		<rect id="XMLID_79_" x="124.6" y="99" class="st3" width="45.3" height="2.5"/>
		<rect id="XMLID_87_" x="124.6" y="102.4" class="st3" width="45.3" height="2.5"/>
		<rect id="XMLID_88_" x="124.6" y="106.7" class="st3" width="45.3" height="2.5"/>
		<rect id="XMLID_112_" x="108.5" y="110" class="st3" width="61.4" height="2.5"/>
		<rect id="XMLID_114_" x="108.5" y="113.7" class="st3" width="61.4" height="2.5"/>
		<rect id="XMLID_115_" x="108.5" y="117.9" class="st3" width="61.4" height="2.5"/>
		<rect id="XMLID_116_" x="108.5" y="121.6" class="st3" width="61.4" height="2.5"/>
		<rect id="XMLID_117_" x="108.5" y="125.1" class="st3" width="44.3" height="2.5"/>
		<path id="XMLID_119_" class="st3" d="M161.4,85.1c5.6,0,11.1-0.1,16.7-0.1c-1.7-1.8-9.2-9.8-10.9-11.6c-0.4-0.5-5-5.3-5.5-5.8
			c-0.1,2.9-0.1,5.8-0.2,8.7C161.5,79.3,161.5,82.2,161.4,85.1z"/>
		<polygon id="XMLID_120_" class="st3" points="177.9,85 161.4,85 177.7,102.9 		"/>
		<path id="XMLID_121_" class="st3" d="M103,168.5c2.8,3.2,5.5,6.3,8.3,9.5c17.9-0.2,35.8-0.4,53.7-0.5
			c-13.5-12.2-27-24.5-40.5-36.7C117.3,150,110.1,159.3,103,168.5z"/>
		<path id="XMLID_118_" class="st2" d="M125.5,168.5H90.8c-2.2,0-4-1.8-4-4v-19.8c0-2.2,1.8-4,4-4h34.7c2.2,0,4,1.8,4,4v19.8
			C129.4,166.7,127.6,168.5,125.5,168.5z"/>
		<g id="XMLID_135_">
			<path id="XMLID_139_" class="st4" d="M107,151.9l-0.9,2.7h-1.2l3-8.7h1.4l3,8.7H111l-0.9-2.7H107z M109.8,151l-0.9-2.5
				c-0.2-0.6-0.3-1.1-0.5-1.6h0c-0.1,0.5-0.3,1-0.4,1.6l-0.9,2.5H109.8z"/>
		</g>
		<rect id="XMLID_142_" x="96.2" y="157.1" class="st4" width="23.2" height="2.2"/>
		<rect id="XMLID_143_" x="96.2" y="161.1" class="st4" width="23.2" height="2.2"/>
	</g>
</g>
<g id="cd">
	<path id="XMLID_152_" class="st5" d="M74.4,115.5c-5.2,0-9.4,4.4-9.4,9.8c0,5.4,4.2,9.8,9.4,9.8c5.2,0,9.4-4.4,9.4-9.8
		C83.8,119.9,79.6,115.5,74.4,115.5z M74.6,128.2c-1.3,0-2.3-1.2-2.3-2.7c0-1.5,1-2.7,2.3-2.7c1.3,0,2.3,1.2,2.3,2.7
		C76.9,127,75.9,128.2,74.6,128.2z"/>
	<path id="XMLID_154_" class="st6" d="M72.7,97c-14.9,0-26.9,12.6-26.9,28.2c0,15.6,12.1,28.2,26.9,28.2c14.9,0,26.9-12.6,26.9-28.2
		C99.7,109.6,87.6,97,72.7,97z M75.5,133.8c-4.5,0-8.1-3.6-8.1-8c0-4.4,3.6-8,8.1-8c4.5,0,8.1,3.6,8.1,8
		C83.6,130.2,80,133.8,75.5,133.8z"/>
	<rect id="XMLID_144_" x="75.6" y="93.9" class="st2" width="28.5" height="63.1"/>
	<g id="XMLID_147_">
		<path id="XMLID_148_" class="st4" d="M88.4,105.5l-0.9,2.7h-1.2l3-8.7h1.4l3,8.7h-1.2l-0.9-2.7H88.4z M91.3,104.6l-0.9-2.5
			c-0.2-0.6-0.3-1.1-0.5-1.6h0c-0.1,0.5-0.3,1-0.4,1.6l-0.9,2.5H91.3z"/>
	</g>
	<rect id="XMLID_146_" x="83.3" y="110.2" class="st4" width="14.7" height="2.2"/>
</g>
</svg>
