<?xml version="1.0" encoding="utf-8"?>
<!-- Generator: Adobe Illustrator 22.0.1, SVG Export Plug-In . SVG Version: 6.00 Build 0)  -->
<svg version="1.1" id="Layer_1" xmlns="http://www.w3.org/2000/svg" xmlns:xlink="http://www.w3.org/1999/xlink" x="0px" y="0px"
	 viewBox="0 0 1028 550" style="enable-background:new 0 0 1028 550;" xml:space="preserve">
<style type="text/css">
	.st0{fill:#5B5955;}
	.st1{fill:#CBA864;}
	.st2{fill:#D1D2D3;}
	.st3{fill:#FFFFFF;}
	.st4{fill:#5FC1CC;}
	.st5{fill:#F3F2F4;}
	.st6{fill:#C79A70;}
	.st7{fill:#322C2D;}
	.st8{fill:#EDF0F2;}
	.st9{fill:#242122;}
	.st10{fill:#7FD0DD;}
	.st11{fill:#253438;}
	.st12{fill:#3B5156;}
	.st13{fill:#E3CFBE;}
	.st14{fill:#58585A;}
	.st15{fill:#949598;}
	.st16{fill:#2D3E42;}
	.st17{fill:#818285;}
	.st18{fill:#FEFFF8;}
	.st19{fill:#F1F2EC;}
	.st20{fill:none;}
	.st21{fill:#EA6F56;}
	.st22{fill:#725E31;}
	.st23{fill:#E5E7E8;}
	.st24{fill:#A7A9AC;}
	.st25{fill:none;stroke:#08090A;stroke-miterlimit:10;}
	.st26{fill:#EDF0F2;stroke:#08090A;stroke-miterlimit:10;}
	.st27{fill:#313131;}
	.st28{fill:none;stroke:#3A3C3D;stroke-width:0.25;stroke-miterlimit:10;}
	.st29{fill:#35172D;}
	.st30{fill:#54A8AE;}
	.st31{fill:none;stroke:#F2F2F2;stroke-width:3;stroke-miterlimit:10;}
	.st32{fill:#F2F2F2;}
</style>
<rect x="-118" y="307.5" class="st0" width="1249" height="283.5"/>
<rect id="XMLID_56_" x="-49" y="-1.5" class="st1" width="1143" height="354.9"/>
<path id="XMLID_6_" class="st2" d="M464.8,130.4h-72.5c-11.3,0-20.7-9.3-20.7-20.7v-9.1h113.8v9.1
	C485.5,121.1,476.2,130.4,464.8,130.4z"/>
<polygon id="XMLID_1_" class="st3" points="248.5,-1.7 609.2,-1.7 550.4,104.8 308.1,104.8 "/>
<polygon id="XMLID_5_" class="st4" points="264.1,8.4 594.1,8.4 545.1,97 312.7,97 "/>
<ellipse id="XMLID_10_" class="st5" cx="650.4" cy="201" rx="42.6" ry="42.2"/>
<path id="XMLID_18_" class="st3" d="M540.3,314.7l-29.7,2c-1.4,0.1-2.6-0.9-2.7-2.4l-0.2-3.2c-0.1-1.4,0.9-2.6,2.4-2.7l29.7-2
	c1.4-0.1,2.6,0.9,2.7,2.4l0.2,3.2C542.7,313.4,541.7,314.5,540.3,314.7z"/>
<ellipse id="XMLID_11_" class="st6" cx="649.3" cy="199.7" rx="20.3" ry="20.4"/>
<path id="XMLID_22_" class="st3" d="M343.6,302.1l-27.4-6.4c-1.6-0.4-2.7-2-2.3-3.7l1.1-4.6c0.4-1.6,2-2.7,3.7-2.3l27.4,6.4
	c1.6,0.4,2.7,2,2.3,3.7l-1.1,4.6C346.9,301.5,345.2,302.5,343.6,302.1z"/>
<rect id="XMLID_2_" x="435.1" y="182.6" transform="matrix(0.9946 -0.104 0.104 0.9946 -20.8425 54.0155)" class="st7" width="144.9" height="88.5"/>
<rect id="XMLID_73_" x="509.7" y="179.5" transform="matrix(0.9944 -0.1057 0.1057 0.9944 -20.334 58.6685)" class="st8" width="67.2" height="83.3"/>
<rect id="XMLID_74_" x="440.2" y="186.6" transform="matrix(0.9945 -0.1044 0.1044 0.9945 -21.2916 50.739)" class="st8" width="67.6" height="84.3"/>
<path id="XMLID_75_" class="st9" d="M512.6,266.1l0.5-0.1c0.5-0.1,0.9-0.5,0.9-1l-8.1-80.9c-0.1-0.5-0.5-0.9-1-0.9l-0.5,0.1
	c-0.5,0.1-0.9,0.5-0.9,1l8.1,80.9C511.7,265.8,512.1,266.2,512.6,266.1z"/>
<path id="XMLID_17_" class="st10" d="M676.6,192.5c-3-12.4-14.1-21.7-27.4-21.7c-15.5,0-28.2,12.7-28.2,28.4s12.7,27.8,28.2,27.8
	c13,0,23.8-8.9,27.2-21.3h4.9v-13.2H676.6z M649.3,222.5c-13.3,0-24-10.3-24-22.9c0-12.7,10.7-22.9,24-22.9c13.3,0,24,10.3,24,22.9
	C673.3,212.2,662.6,222.5,649.3,222.5z"/>
<path id="XMLID_12_" class="st11" d="M281.2,428.6c10.1-45.3,20.2-90.6,30.4-135.8l36.3,6.9l-23.1,116.6c0,0,40.2-12.4,106.9-12
	c40.6-0.9,80.1,12,80.1,12l3.4-17.5l-9.2-82.4l38.4-3.2l9.3,83.6c-0.2,10.6-0.2,21.3-0.4,31.9C462.6,428.7,371.9,428.6,281.2,428.6z
	"/>
<path id="XMLID_15_" class="st12" d="M337.4,353.6l44-0.2l3.4,21c26.2-3.5,50-4.8,72.5,1.5c1.2-7.5,2.6-15.1,3.8-22.7
	c16.4,0.1,32.9,0.2,49.2,0.3c1.6,15.5,3,31,4.6,46.5c-1.1,6.2-2.2,12.5-3.3,18.7c-63.5-18.4-123.3-17.6-180,0.2
	C331.3,398,333,376.2,337.4,353.6z"/>
<path id="XMLID_21_" class="st13" d="M507.9,299.9c-6.4-13.6-9.6-18.6-15.1-34.6c-0.6-3.3-0.5-17.3-0.5-17.3l2.7-14.2
	c1.2-5.3,10.3-5.4,10.1,1.9c-0.5,2.8-0.5,3.3-1.6,9.2c-0.1,5.1,0,6.3,0,9.6c3.9,10.7,12.4-5.5,12.4-5.5s-0.8-4.3-2.5-9
	c-4.6-9.1-8.2-14.5-8.2-14.5c-5.4-6.8,2.8-13.1,8.7-5.7l9.3,9.9c0,0,0.9,5,1.1,6.8c2.1-0.9,2.6-1.9,5.7-2.3c1.3-0.1,3.7,0.1,4,5.1
	c0.4,0.2,0.8,0.3,1,0.4c0.2-0.2,1.1-1.7,3-2c1.6-0.2,3.2,0.4,4.2,1.7c1.2,28.3-0.9,34.7-3.7,56.6c-2,2.7,0.5,9,0.5,9l-29.8,2.5
	C509.3,307.5,509.3,303.2,507.9,299.9z"/>
<path id="XMLID_58_" class="st14" d="M494.4,227.2c0.7,0.8,3.3,3.3,3.3,3.3c7.5,5.2,16.7,9.9,27,14.3l9.1,4.5c0,0,3.9,1.6,5.8-1.2
	c3.7-5-4-8-4-8s-29.8-15.3-32.6-15.6c-3-0.3-5.4-0.4-6.8-0.3"/>
<ellipse id="XMLID_23_" class="st15" cx="343.6" cy="295.4" rx="1.9" ry="2.1"/>
<ellipse id="XMLID_24_" class="st15" cx="513.7" cy="312.6" rx="1.9" ry="1.8"/>
<path id="XMLID_13_" class="st16" d="M335.1,363.5c-4.3,21.4-8.7,42.6-13,64.3c3.2,0,6.4,0,9.6,0C332.8,406.1,333.9,385,335.1,363.5
	z"/>
<rect id="XMLID_27_" x="230" y="189.5" class="st3" width="198.1" height="82.5"/>
<path id="XMLID_57_" class="st16" d="M236.6,374"/>
<rect id="XMLID_28_" x="407" y="193.8" class="st15" width="16.5" height="16.1"/>
<rect id="XMLID_29_" x="407" y="212.7" class="st15" width="16.5" height="16.1"/>
<rect id="XMLID_30_" x="407" y="232.4" class="st15" width="16.5" height="16.1"/>
<rect id="XMLID_31_" x="407" y="251.3" class="st15" width="16.5" height="16.1"/>
<rect id="XMLID_35_" x="234.2" y="193.9" class="st15" width="16.5" height="16.1"/>
<rect id="XMLID_34_" x="234.2" y="212.9" class="st15" width="16.5" height="16.1"/>
<rect id="XMLID_33_" x="234.2" y="232.5" class="st15" width="16.5" height="16.1"/>
<rect id="XMLID_32_" x="234.2" y="251.5" class="st15" width="16.5" height="16.1"/>
<rect id="XMLID_39_" x="255.1" y="193.9" class="st15" width="16.5" height="16.1"/>
<rect id="XMLID_38_" x="255.1" y="212.9" class="st15" width="16.5" height="16.1"/>
<rect id="XMLID_37_" x="255.1" y="232.5" class="st15" width="16.5" height="16.1"/>
<rect id="XMLID_41_" x="277.3" y="193.6" class="st15" width="16.5" height="16.1"/>
<rect id="XMLID_40_" x="277.3" y="212.6" class="st15" width="16.5" height="16.1"/>
<rect id="XMLID_36_" x="277.3" y="232.2" class="st15" width="16.5" height="16.1"/>
<rect id="XMLID_42_" x="253.7" y="251.3" class="st15" width="62.4" height="16.2"/>
<rect id="XMLID_43_" x="298" y="232.2" class="st15" width="16.5" height="16.1"/>
<rect id="XMLID_44_" x="298" y="193.8" class="st15" width="15.5" height="16.1"/>
<rect id="XMLID_45_" x="319" y="193.6" class="st15" width="16.2" height="16.4"/>
<rect id="XMLID_46_" x="303.5" y="212.9" class="st15" width="31.7" height="15.9"/>
<rect id="XMLID_49_" x="343" y="193.8" class="st15" width="16.5" height="16.1"/>
<rect id="XMLID_48_" x="362.8" y="193.9" class="st15" width="16.5" height="16.1"/>
<rect id="XMLID_47_" x="381.9" y="193.9" class="st15" width="16.5" height="16.1"/>
<rect id="XMLID_52_" x="343.6" y="212.7" class="st15" width="16.5" height="16.1"/>
<rect id="XMLID_51_" x="362.8" y="212.7" class="st15" width="16.5" height="16.1"/>
<rect id="XMLID_50_" x="381.9" y="212.9" class="st15" width="16.5" height="16.1"/>
<rect id="XMLID_54_" x="363.9" y="231.7" class="st15" width="16.5" height="16.1"/>
<rect id="XMLID_53_" x="363.9" y="250.5" class="st15" width="16.5" height="16.1"/>
<rect id="XMLID_55_" x="381.9" y="250.5" class="st15" width="16.5" height="16.1"/>
<path id="XMLID_25_" class="st13" d="M346.4,292.3c0,0,0.2-1.1,0.3-2c10.6-5.2,11.2-8.2,13.4-11.7c1.9-11.3,10.4-64.2,10.4-64.2
	s-0.1-3-1.6-4.3c-1.8-1.6-5-1.6-6.9-0.2c-1.4,1.2-1.6,3.1-1.7,3.9c-1.2,14.2-5.1,33.2-5.1,33.2c-0.7,0.6-1.3,0.6-1.6-0.1l3.1-18.7
	c0.9-4.1-7.4-10.1-11.6-1.8l-2.8,17.9c-0.5,1.6-1.6,1.1-1.4-0.2c0.8-4.7,1.6-9.2,2.4-13.9c-0.2-0.5-1-3.3-3.7-4.6
	c-2.6-1.2-4.9-0.2-8.2,1.8l-2.4,15.4c-0.2,0.9-1,0.9-0.8-0.5l1.3-10.3c0.1-1.9-0.9-3.7-3-3.8c-4.7-0.7-5.3,4.7-5.3,4.7l-4.6,39.8
	c0,0-0.5,5.1,3,9.1c-0.4,2.9-0.8,4.3-0.8,4.3L346.4,292.3z"/>
<path id="XMLID_26_" class="st13" d="M378.2,255.7c4.3-5.4-1.4-10.9-7-7.6l-8.2,10.4c-1,6.8-2.1,13.5-3.1,20.3
	C366,271.1,372.1,263.4,378.2,255.7z"/>
<ellipse id="XMLID_59_" class="st17" cx="536.1" cy="245.4" rx="3.5" ry="3.3"/>
<path id="XMLID_60_" class="st18" d="M490.7,223.3l3.7,3.8c0.5-1,1.1-2,1.6-3C494.3,223.8,492.5,223.5,490.7,223.3z"/>
<path id="XMLID_61_" class="st13" d="M505.2,236.2L505.2,236.2c-0.5,2.7-3.2,4.5-5.9,4l-0.3-0.1c-2.7-0.5-4.5-3.2-4-5.9l0,0
	c0.5-2.7,3.2-4.5,5.9-4l0.3,0.1C503.9,230.7,505.7,233.4,505.2,236.2z"/>
<rect id="XMLID_62_" x="768.4" y="303.8" class="st19" width="24.2" height="24.3"/>
<rect id="XMLID_63_" x="773.5" y="320.1" class="st17" width="14.5" height="3.3"/>
<rect id="XMLID_64_" x="772.6" y="323.3" class="st20" width="14.5" height="3.3"/>
<rect id="XMLID_65_" x="773.5" y="308.8" class="st17" width="14.5" height="3.3"/>
<rect id="XMLID_66_" x="793.1" y="299.5" class="st21" width="70.9" height="34"/>
<rect id="XMLID_67_" x="763.3" y="163.2" class="st17" width="22.4" height="128.4"/>
<rect id="XMLID_68_" x="766.4" y="163.2" class="st3" width="16.7" height="127.5"/>
<path id="XMLID_69_" class="st22" d="M784.8,163.2h85.4c5.2,0,9.4,4.2,9.4,9.4v109.7c0,5.2-4.2,9.4-9.4,9.4h-85.4V163.2z"/>
<polygon id="XMLID_70_" class="st3" points="801.4,162.2 819.6,162.2 820,213.2 810.3,205.4 800.9,213 "/>
<path id="XMLID_76_" class="st23" d="M642.3,345.5L642.3,345.5c-8.5,0-15.5-7-15.5-15.5v-19.1c0-8.5,7-15.5,15.5-15.5l0,0
	c8.5,0,15.5,7,15.5,15.5V330C657.8,338.5,650.9,345.5,642.3,345.5z"/>
<path id="XMLID_77_" class="st24" d="M642.3,316.2L642.3,316.2c-1.3,0-2.3-1-2.3-2.3v-8.7c0-1.2,1-2.3,2.3-2.3l0,0
	c1.3,0,2.3,1.1,2.3,2.3v8.7C644.6,315.1,643.6,316.2,642.3,316.2z"/>
<g id="XMLID_80_">
	<path id="XMLID_81_" class="st25" d="M452,213.5c1.1-3.7,2.5-8.4,2-12.4c-0.4-3.5,0.9-6.4,5-6.8c4.1-0.5,7.3,3.8,9.5,6.9
		c1,1.4,9.9,16.2,12.1,20.2c2,3.7,4.3,1.1,4.7,4c0.4,3.7-6.4,4.3-8.7,4.6c-6.8,0.8-10.9,1.2-11.3-1.9c-0.3-2.5,2.7-1.9,2.5-3.7
		c-0.2-2.3-1.5-2.3-9.2-1.5c-2.5,0.3-4,0.5-3.7,3c0.2,2,3.1,0.3,3.4,3c0.4,3-4.8,3.7-6.7,3.9c-6.8,0.8-7.6-0.5-7.8-2.2
		c-0.3-2.4,2.4-1.9,3.6-4c0.9-1.5,1.6-4,2.1-5.7L452,213.5z M462.4,216c0.5-0.1,1.9-0.1,1.9-0.9s-1.8-3.3-2.3-4
		c-0.5-0.8-1.6-2.6-2.6-2.5c-1.2,0.2-1.6,3.3-1.7,3.9c-0.2,0.6-0.7,2.6-0.6,3.3c0.1,0.9,1.2,0.5,1.8,0.5L462.4,216z"/>
</g>
<path id="XMLID_78_" class="st25" d="M445.7,235.2c3.8-0.2,7.6-0.4,11.5-0.6"/>
<path id="XMLID_79_" class="st25" d="M466.6,233.7c6.1-1,12.2-2.1,18.3-3.1"/>
<ellipse id="XMLID_84_" transform="matrix(0.1602 -0.9871 0.9871 0.1602 186.1163 675.7117)" class="st25" cx="490.2" cy="228.5" rx="2.4" ry="2.4"/>
<path id="XMLID_85_" class="st25" d="M469,195.5c6.3,9.5,12.6,18.9,18.8,28.3"/>
<rect id="XMLID_86_" x="530.4" y="189" transform="matrix(0.9923 -0.1235 0.1235 0.9923 -19.7105 69.3172)" class="st25" width="37.7" height="9.2"/>
<rect id="XMLID_87_" x="545.1" y="203" transform="matrix(0.9923 -0.1235 0.1235 0.9923 -21.3796 70.3598)" class="st25" width="23.5" height="9.2"/>
<rect id="XMLID_88_" x="535.8" y="219.4" transform="matrix(0.9923 -0.1235 0.1235 0.9923 -23.4194 70.2207)" class="st25" width="37.7" height="9.2"/>
<path id="XMLID_89_" class="st25" d="M553.9,197.6c0.2,1.8,0.5,3.7,0.8,5.4"/>
<path id="XMLID_90_" class="st26" d="M556.7,212.3c0.2,2.2,0.5,4.3,0.8,6.4"/>
<path id="XMLID_91_" class="st3" d="M146.2,341.6V254c0-4.3,3.6-7.9,7.9-7.9h35.2c4.3,0,7.9,3.6,7.9,7.9v87.5c0,4.3-3.6,7.9-7.9,7.9
	h-35.2C149.8,349.5,146.2,345.9,146.2,341.6z"/>
<rect id="XMLID_92_" x="148.5" y="260.9" class="st27" width="47" height="74"/>
<path id="XMLID_93_" class="st27" d="M164.6,256.8L164.6,256.8c0-0.7,0.5-1.2,1.2-1.2h9.9c0.7,0,1.2,0.5,1.2,1.2l0,0
	c0,0.7-0.5,1.2-1.2,1.2h-9.9C165.2,258,164.6,257.4,164.6,256.8z"/>
<ellipse id="XMLID_94_" class="st27" cx="171.1" cy="252.1" rx="1.2" ry="1.3"/>
<ellipse id="XMLID_95_" class="st28" cx="172.3" cy="343.3" rx="3" ry="3.1"/>
<path id="XMLID_97_" class="st29" d="M101.6,94H155l2.5-11.9l11.9-0.7l1.6,12.4l29.7,0.2c0,0,0,36.5,0,54.8h-99V94z"/>
<path class="st30" d="M172.4,86.9v-8.5h-18.6v8.5H125v-6.2H108v6.2h-6.2v7h52v1.6h18.6v-1.6h29.5v-7H172.4z M168.5,93.1h-10.9V82.2
	h10.9V93.1z"/>
<rect x="180.7" y="83.6" class="st29" width="16.6" height="3.4"/>
<ellipse class="st31" cx="161.9" cy="120.8" rx="15.5" ry="15.8"/>
<g>
	<path class="st32" d="M151.2,126.3c0,0-0.1,0-0.2,0.1c-0.1,0-0.2,0-0.2,0.1c-0.1,0-0.1,0-0.2,0.1c0,0-0.1,0-0.2,0
		c-0.2,0-0.3,0-0.5,0c-0.2-0.1-0.2-0.2-0.2-0.2c-0.2-0.4-0.5-1-0.9-1.8c-0.3-0.8-0.5-1.7-0.7-2.8c-0.1-0.5-0.1-1-0.1-1.6
		c0-0.5,0.1-1.1,0.2-1.6c0.1-0.5,0.2-1.1,0.5-1.6c0.2-0.5,0.4-1,0.6-1.5c0.2-0.2,0.2-0.4,0.3-0.6c0.2-0.2,0.2-0.5,0.4-0.6
		c0.2-0.4,0.5-0.8,0.8-1c0.6-0.5,1.2-0.9,1.8-1c0.2-0.1,0.5-0.1,0.6-0.1s0.2,0,0.2,0s0,0.1,0,0.2s0,0.4,0,0.6c0,0.5-0.2,1.2-0.3,1.8
		c-0.1,0.3-0.2,0.6-0.4,1c-0.1,0.2-0.2,0.4-0.2,0.5c-0.1,0.2-0.2,0.4-0.2,0.5c-0.3,0.8-0.5,1.6-0.6,2.4c-0.1,0.4-0.2,0.8-0.2,1.2
		c0,0.3-0.1,0.8,0,1.2c0,0.8,0.1,1.5,0.2,2.1s0.2,1.2,0.4,1.5c0,0.1,0.1,0.2,0,0.2s-0.2,0.2-0.2,0.4l-0.1,0.1
		c-0.1,0-0.1,0.1-0.1,0.1c-0.1,0.1-0.2,0.1-0.2,0.2c-0.1,0.1-0.2,0.2-0.2,0.2L151.2,126.3z"/>
</g>
<g>
	<path class="st32" d="M173.2,120.1c0,0,0.1,0,0.2,0s0.2,0,0.2,0c0.1,0,0.1,0,0.2,0c0,0,0.1,0,0.2,0c0.2,0,0.3,0.1,0.4,0.2
		c0.1,0.1,0.1,0.2,0.1,0.3c0.1,0.5,0.2,1.2,0.1,2c0,0.9-0.2,1.8-0.5,2.8c-0.2,0.5-0.3,0.9-0.5,1.6c-0.2,0.5-0.5,1-0.9,1.5
		c-0.3,0.5-0.7,0.9-1,1.3c-0.4,0.4-0.8,0.8-1.2,1.1c-0.2,0.2-0.3,0.3-0.5,0.5c-0.2,0.2-0.4,0.3-0.6,0.5c-0.4,0.2-0.8,0.5-1.2,0.6
		c-0.8,0.3-1.5,0.3-2,0.2c-0.2-0.1-0.5-0.1-0.6-0.2s-0.2-0.1-0.2-0.1s0-0.1,0.1-0.2s0.2-0.3,0.2-0.5c0.2-0.5,0.5-1,1-1.5
		c0.2-0.2,0.5-0.5,0.8-0.7c0.2-0.2,0.3-0.2,0.4-0.4c0.2-0.2,0.3-0.3,0.4-0.5c0.5-0.6,1.1-1.2,1.5-1.9c0.2-0.3,0.4-0.7,0.6-1.1
		c0.2-0.3,0.4-0.7,0.5-1.1c0.3-0.7,0.5-1.4,0.6-2c0.2-0.6,0.2-1.2,0.2-1.6c0-0.1,0-0.2,0.1-0.2s0.2-0.2,0.4-0.2c0.1,0,0.1,0,0.1-0.1
		c0.1,0,0.1,0,0.2-0.1c0.1,0,0.2-0.1,0.2-0.1c0.2-0.1,0.2-0.1,0.2-0.1L173.2,120.1z"/>
</g>
<g>
	<path class="st3" d="M225.4,437.8v48.5h-6.3v-48.5H225.4z"/>
	<path class="st1" d="M243.8,437c-1.7,6-4.8,13.8-6.8,17.1l-4,0.5c1.6-4.2,3.5-11.7,4.2-16.9L243.8,437z"/>
	<path class="st3" d="M291.2,465c-0.4-6.8-0.8-14.9-0.7-21h-0.2c-1.7,5.7-3.7,11.7-6.1,18.4l-8.6,23.5h-4.8l-7.8-23.1
		c-2.3-6.8-4.2-13.1-5.6-18.9h-0.1c-0.1,6-0.5,14.2-0.9,21.5l-1.3,20.8h-6l3.4-48.5h8l8.3,23.5c2,6,3.7,11.3,4.9,16.3h0.2
		c1.2-4.9,3-10.2,5.1-16.3l8.6-23.5h8l3,48.5h-6.1L291.2,465z"/>
	<path class="st3" d="M331.3,471l-5,15.3h-6.5l16.5-48.5h7.6l16.6,48.5h-6.7l-5.2-15.3H331.3z M347.2,466.1l-4.8-14
		c-1.1-3.2-1.8-6-2.5-8.9h-0.1c-0.7,2.9-1.5,5.8-2.4,8.8l-4.8,14H347.2z"/>
	<path class="st3" d="M367.5,438.4c2.7-0.6,7.1-1,11.4-1c6.3,0,10.3,1.1,13.3,3.5c2.5,1.9,4,4.8,4,8.6c0,4.7-3.1,8.8-8.2,10.7v0.1
		c4.6,1.2,10,5,10,12.2c0,4.2-1.7,7.3-4.1,9.7c-3.4,3.1-8.9,4.5-16.8,4.5c-4.3,0-7.6-0.3-9.7-0.6V438.4z M373.8,458.3h5.7
		c6.6,0,10.5-3.5,10.5-8.1c0-5.7-4.3-7.9-10.7-7.9c-2.9,0-4.5,0.2-5.5,0.4V458.3z M373.8,481.5c1.2,0.2,3,0.3,5.3,0.3
		c6.5,0,12.5-2.4,12.5-9.4c0-6.6-5.7-9.4-12.5-9.4h-5.2V481.5z"/>
	<path class="st3" d="M414.4,471l-5,15.3h-6.5l16.5-48.5h7.6l16.6,48.5h-6.7l-5.2-15.3H414.4z M430.3,466.1l-4.8-14
		c-1.1-3.2-1.8-6-2.5-8.9h-0.1c-0.7,2.9-1.5,5.8-2.4,8.8l-4.8,14H430.3z"/>
	<path class="st3" d="M450.6,438.4c3.8-0.6,8.4-1,13.3-1c9,0,15.4,2.1,19.7,6c4.3,4,6.8,9.6,6.8,17.4c0,7.9-2.4,14.4-7,18.9
		c-4.5,4.5-12,7-21.5,7c-4.5,0-8.2-0.2-11.4-0.6V438.4z M456.9,481.3c1.6,0.3,3.9,0.4,6.3,0.4c13.4,0,20.7-7.5,20.7-20.6
		c0.1-11.4-6.4-18.7-19.7-18.7c-3.2,0-5.7,0.3-7.3,0.6V481.3z"/>
	<path class="st3" d="M498.5,438.4c3.8-0.6,8.4-1,13.3-1c9,0,15.4,2.1,19.7,6c4.3,4,6.8,9.6,6.8,17.4c0,7.9-2.4,14.4-7,18.9
		c-4.5,4.5-12,7-21.5,7c-4.5,0-8.2-0.2-11.4-0.6V438.4z M504.8,481.3c1.6,0.3,3.9,0.4,6.3,0.4c13.4,0,20.7-7.5,20.7-20.6
		c0.1-11.4-6.4-18.7-19.7-18.7c-3.2,0-5.7,0.3-7.3,0.6V481.3z"/>
	<path class="st3" d="M552.8,437.8v48.5h-6.3v-48.5H552.8z"/>
	<path class="st1" d="M578.2,464.5v4.7h-17.8v-4.7H578.2z"/>
	<path class="st3" d="M593.4,471l-5,15.3h-6.5l16.5-48.5h7.6l16.6,48.5h-6.7l-5.2-15.3H593.4z M609.3,466.1l-4.8-14
		c-1.1-3.2-1.8-6-2.5-8.9h-0.1c-0.7,2.9-1.5,5.8-2.4,8.8l-4.8,14H609.3z"/>
	<path class="st3" d="M629.6,438.4c2.7-0.6,7.1-1,11.4-1c6.3,0,10.3,1.1,13.3,3.5c2.5,1.9,4,4.8,4,8.6c0,4.7-3.1,8.8-8.2,10.7v0.1
		c4.6,1.2,10,5,10,12.2c0,4.2-1.7,7.3-4.1,9.7c-3.4,3.1-8.9,4.5-16.8,4.5c-4.3,0-7.6-0.3-9.7-0.6V438.4z M635.8,458.3h5.7
		c6.6,0,10.5-3.5,10.5-8.1c0-5.7-4.3-7.9-10.7-7.9c-2.9,0-4.5,0.2-5.5,0.4V458.3z M635.8,481.5c1.2,0.2,3,0.3,5.3,0.3
		c6.5,0,12.5-2.4,12.5-9.4c0-6.6-5.7-9.4-12.5-9.4h-5.2V481.5z"/>
	<path class="st1" d="M665.9,482.6c0-2.7,1.8-4.5,4.3-4.5c2.5,0,4.2,1.9,4.2,4.5c0,2.6-1.7,4.5-4.3,4.5
		C667.7,487.1,665.9,485.1,665.9,482.6z"/>
	<path class="st3" d="M275.7,508.4v-2l6,0v6.4c-0.9,0.9-1.9,1.6-2.8,2s-2,0.7-3,0.7c-1.4,0-2.6-0.3-3.7-1c-1.1-0.7-1.9-1.7-2.6-3
		s-0.9-2.9-0.9-4.8c0-1.9,0.3-3.5,0.9-4.9s1.5-2.4,2.5-3.1c1-0.7,2.2-1,3.6-1c1,0,1.9,0.2,2.7,0.6s1.4,0.9,1.9,1.6s0.9,1.7,1.1,2.9
		l-1.7,0.6c-0.2-1-0.5-1.7-0.9-2.2s-0.8-0.9-1.4-1.1s-1.2-0.4-1.9-0.4c-1,0-1.9,0.2-2.6,0.7c-0.7,0.5-1.3,1.3-1.8,2.3
		s-0.7,2.3-0.7,3.8c0,2.3,0.5,4,1.4,5.2c1,1.1,2.2,1.7,3.8,1.7c0.7,0,1.5-0.2,2.3-0.5s1.4-0.8,1.8-1.3v-3.2H275.7z"/>
	<path class="st3" d="M284.3,515.1v-17.2h6.2c1.3,0,2.3,0.2,2.9,0.5s1.1,0.9,1.5,1.6c0.4,0.7,0.6,1.6,0.6,2.6c0,1.3-0.3,2.3-1,3.2
		c-0.7,0.8-1.7,1.3-2.9,1.5c0.5,0.3,0.9,0.6,1.2,1c0.6,0.7,1,1.4,1.5,2.2l2.5,4.7h-2.3l-1.9-3.6c-0.7-1.4-1.3-2.3-1.6-2.8
		c-0.4-0.5-0.7-0.8-1.1-1c-0.3-0.2-0.8-0.3-1.5-0.3h-2.2v7.6H284.3z M286.2,505.5h4c0.9,0,1.5-0.1,2-0.3s0.8-0.5,1.1-1
		s0.4-1,0.4-1.6c0-0.9-0.3-1.5-0.8-2s-1.3-0.7-2.3-0.7h-4.5V505.5z"/>
	<path class="st3" d="M297,515.1l5.4-17.2h2l5.8,17.2h-2.1l-1.6-5.2h-5.9l-1.5,5.2H297z M301.1,508h4.8l-1.5-4.8
		c-0.5-1.5-0.8-2.6-1-3.6c-0.2,1.1-0.4,2.2-0.8,3.3L301.1,508z"/>
	<path class="st3" d="M311.7,515.1v-17.2h5.3c1.2,0,2.2,0.1,2.8,0.3c0.8,0.3,1.5,0.8,1.9,1.7s0.7,1.8,0.7,3c0,1.5-0.4,2.8-1.2,3.8
		s-2.2,1.5-4.1,1.5h-3.6v7H311.7z M313.5,506.1h3.6c1.1,0,2-0.3,2.5-0.8s0.8-1.3,0.8-2.3c0-0.7-0.1-1.3-0.4-1.7s-0.6-0.8-0.9-1
		s-1-0.3-2-0.3h-3.6V506.1z"/>
	<path class="st3" d="M324.8,515.1v-17.2h1.9v7.1h7.3v-7.1h1.9v17.2H334V507h-7.3v8.1H324.8z"/>
	<path class="st3" d="M339.4,515.1v-17.2h1.9v17.2H339.4z"/>
	<path class="st3" d="M354.5,509.1l1.9,0.6c-0.4,1.9-1.1,3.4-2.2,4.3s-2.3,1.4-3.8,1.4c-1.3,0-2.4-0.3-3.3-1
		c-0.9-0.6-1.7-1.7-2.3-3.1s-0.9-3.1-0.9-5c0-1.9,0.3-3.5,0.9-4.8c0.6-1.3,1.4-2.3,2.4-3c1-0.7,2.1-1,3.4-1c1.4,0,2.5,0.4,3.5,1.3
		s1.7,2.1,2.1,3.7l-1.8,0.5c-0.6-2.4-1.9-3.6-3.8-3.6c-0.9,0-1.8,0.2-2.4,0.7c-0.7,0.5-1.2,1.2-1.6,2.2c-0.4,1-0.6,2.3-0.6,3.9
		c0,2.4,0.4,4.1,1.2,5.3c0.8,1.2,1.9,1.8,3.3,1.8c1,0,1.9-0.4,2.6-1.1S354.2,510.5,354.5,509.1z"/>
	<path class="st3" d="M364.1,515.1v-17.2h4.9c1.2,0,2.1,0.1,2.7,0.3c0.8,0.3,1.5,0.8,2.1,1.5s1.1,1.6,1.4,2.7s0.5,2.4,0.5,3.9
		c0,1.9-0.3,3.6-0.9,5s-1.3,2.3-2.2,2.9s-2.1,0.8-3.5,0.8H364.1z M366,513.1h3c1.2,0,2.1-0.2,2.8-0.6s1.1-1,1.4-1.9
		c0.4-1.2,0.7-2.6,0.7-4.2c0-1.7-0.2-3.1-0.7-4.1s-1.1-1.7-1.8-2c-0.5-0.2-1.3-0.3-2.4-0.3h-3V513.1z"/>
	<path class="st3" d="M378.4,515.1v-17.2h10.2v2h-8.3v5.2h7.8v2h-7.8v5.8h8.6v2H378.4z"/>
	<path class="st3" d="M390.9,509.6l1.8-0.2c0.1,0.9,0.3,1.7,0.6,2.2s0.8,1,1.4,1.3s1.3,0.5,2.1,0.5c1.1,0,2-0.3,2.6-0.8
		s0.9-1.2,0.9-2.1c0-0.5-0.1-0.9-0.3-1.3c-0.2-0.4-0.6-0.7-1-0.9c-0.4-0.2-1.4-0.6-2.9-1c-1.3-0.4-2.3-0.8-2.8-1.2s-1-0.9-1.3-1.5
		s-0.5-1.3-0.5-2.1c0-1.4,0.4-2.5,1.3-3.4s2.1-1.3,3.6-1.3c1,0,2,0.2,2.7,0.6s1.4,1,1.8,1.8s0.7,1.7,0.7,2.7l-1.8,0.2
		c-0.1-1.1-0.4-1.9-1-2.5s-1.4-0.8-2.4-0.8c-1.1,0-1.9,0.2-2.4,0.7s-0.8,1.1-0.8,1.8c0,0.7,0.2,1.2,0.6,1.6c0.4,0.4,1.3,0.8,2.7,1.2
		c1.4,0.4,2.4,0.7,2.9,1c0.9,0.4,1.5,1,1.9,1.7c0.4,0.7,0.7,1.6,0.7,2.6c0,1-0.2,1.9-0.7,2.7s-1.1,1.4-1.9,1.8
		c-0.8,0.4-1.7,0.6-2.9,0.6c-1.7,0-3.1-0.5-4.2-1.6S390.9,511.4,390.9,509.6z"/>
	<path class="st3" d="M405,515.1v-17.2h1.9v17.2H405z"/>
	<path class="st3" d="M416.7,508.4v-2l6,0v6.4c-0.9,0.9-1.9,1.6-2.8,2s-2,0.7-3,0.7c-1.4,0-2.6-0.3-3.7-1c-1.1-0.7-1.9-1.7-2.6-3
		s-0.9-2.9-0.9-4.8c0-1.9,0.3-3.5,0.9-4.9s1.5-2.4,2.5-3.1c1-0.7,2.2-1,3.6-1c1,0,1.9,0.2,2.7,0.6s1.4,0.9,1.9,1.6s0.9,1.7,1.1,2.9
		l-1.7,0.6c-0.2-1-0.5-1.7-0.9-2.2s-0.8-0.9-1.4-1.1s-1.2-0.4-1.9-0.4c-1,0-1.9,0.2-2.6,0.7c-0.7,0.5-1.3,1.3-1.8,2.3
		s-0.7,2.3-0.7,3.8c0,2.3,0.5,4,1.4,5.2c1,1.1,2.2,1.7,3.8,1.7c0.7,0,1.5-0.2,2.3-0.5s1.4-0.8,1.8-1.3v-3.2H416.7z"/>
	<path class="st3" d="M425.3,515.1v-17.2h1.9l7.4,13.5v-13.5h1.8v17.2h-1.9l-7.4-13.5v13.5H425.3z"/>
	<path class="st3" d="M439.6,515.1v-17.2h10.2v2h-8.3v5.2h7.8v2h-7.8v5.8h8.6v2H439.6z"/>
	<path class="st3" d="M452.7,515.1v-17.2h6.2c1.3,0,2.3,0.2,2.9,0.5s1.1,0.9,1.5,1.6c0.4,0.7,0.6,1.6,0.6,2.6c0,1.3-0.3,2.3-1,3.2
		c-0.7,0.8-1.7,1.3-2.9,1.5c0.5,0.3,0.9,0.6,1.2,1c0.6,0.7,1,1.4,1.5,2.2l2.5,4.7h-2.3l-1.9-3.6c-0.7-1.4-1.3-2.3-1.6-2.8
		c-0.4-0.5-0.7-0.8-1.1-1c-0.3-0.2-0.8-0.3-1.5-0.3h-2.2v7.6H452.7z M454.6,505.5h4c0.9,0,1.5-0.1,2-0.3s0.8-0.5,1.1-1
		s0.4-1,0.4-1.6c0-0.9-0.3-1.5-0.8-2s-1.3-0.7-2.3-0.7h-4.5V505.5z"/>
	<path class="st1" d="M480.2,513.1c-1.1,1.5-2.5,2.3-4,2.3c-1.4,0-2.5-0.5-3.3-1.6s-1.2-2.2-1.2-3.5c0-2.1,1.1-3.8,3.4-5.1
		c-0.6-0.9-1-1.6-1.3-2.1c-0.2-0.6-0.3-1.1-0.3-1.6c0-1.1,0.3-2,1-2.7s1.5-1.1,2.5-1.1c0.9,0,1.7,0.3,2.3,1c0.6,0.7,0.9,1.6,0.9,2.6
		c0,1.6-0.9,3-2.7,4.2l2.5,3.9c0.3-0.7,0.5-1.5,0.7-2.4l1.8,0.5c-0.3,1.5-0.7,2.7-1.2,3.7c0.6,1,1.4,1.9,2.2,2.6l-1.2,1.7
		C481.7,514.9,481,514.1,480.2,513.1z M479.1,511.4l-3.2-4.8c-0.9,0.6-1.5,1.3-1.9,1.8c-0.4,0.6-0.5,1.2-0.5,1.8
		c0,0.8,0.2,1.5,0.7,2.2s1.1,1.1,1.9,1.1c0.5,0,1-0.2,1.6-0.6C478.4,512.6,478.8,512,479.1,511.4z M476.7,504.1
		c0.7-0.5,1.2-1,1.4-1.4s0.4-0.9,0.4-1.4c0-0.6-0.2-1.1-0.5-1.5c-0.3-0.4-0.7-0.5-1.1-0.5c-0.4,0-0.8,0.2-1.2,0.5s-0.5,0.8-0.5,1.4
		c0,0.5,0.2,1.1,0.7,1.8L476.7,504.1z"/>
	<path class="st3" d="M491.4,515.1v-17.2h1.9v17.2H491.4z"/>
	<path class="st3" d="M496.4,515.1v-17.2h1.9v15.2h6.9v2H496.4z"/>
	<path class="st3" d="M507.3,515.1v-17.2h1.9v15.2h6.9v2H507.3z"/>
	<path class="st3" d="M527.6,497.9h1.9v9.9c0,1.7-0.2,3-0.5,4.1c-0.3,1.1-0.9,1.9-1.8,2.5c-0.9,0.6-1.9,0.9-3.3,0.9
		c-1.9,0-3.2-0.6-4.2-1.7s-1.4-3.1-1.4-5.9v-9.9h1.9v9.9c0,1.6,0.1,2.7,0.4,3.4s0.6,1.2,1.2,1.6s1.2,0.5,2,0.5
		c1.3,0,2.3-0.4,2.9-1.1s0.9-2.2,0.9-4.4V497.9z"/>
	<path class="st3" d="M531.9,509.6l1.8-0.2c0.1,0.9,0.3,1.7,0.6,2.2s0.8,1,1.4,1.3s1.3,0.5,2.1,0.5c1.1,0,2-0.3,2.6-0.8
		s0.9-1.2,0.9-2.1c0-0.5-0.1-0.9-0.3-1.3c-0.2-0.4-0.6-0.7-1-0.9c-0.4-0.2-1.4-0.6-2.9-1c-1.3-0.4-2.3-0.8-2.8-1.2s-1-0.9-1.3-1.5
		s-0.5-1.3-0.5-2.1c0-1.4,0.4-2.5,1.3-3.4s2.1-1.3,3.6-1.3c1,0,2,0.2,2.7,0.6s1.4,1,1.8,1.8s0.7,1.7,0.7,2.7l-1.8,0.2
		c-0.1-1.1-0.4-1.9-1-2.5s-1.4-0.8-2.4-0.8c-1.1,0-1.9,0.2-2.4,0.7s-0.8,1.1-0.8,1.8c0,0.7,0.2,1.2,0.6,1.6c0.4,0.4,1.3,0.8,2.7,1.2
		c1.4,0.4,2.4,0.7,2.9,1c0.9,0.4,1.5,1,1.9,1.7c0.4,0.7,0.7,1.6,0.7,2.6c0,1-0.2,1.9-0.7,2.7s-1.1,1.4-1.9,1.8
		c-0.8,0.4-1.7,0.6-2.9,0.6c-1.7,0-3.1-0.5-4.2-1.6S532,511.4,531.9,509.6z"/>
	<path class="st3" d="M549.3,515.1v-15.2h-4.6v-2h11.2v2h-4.7v15.2H549.3z"/>
	<path class="st3" d="M557.7,515.1v-17.2h6.2c1.3,0,2.3,0.2,2.9,0.5s1.1,0.9,1.5,1.6c0.4,0.7,0.6,1.6,0.6,2.6c0,1.3-0.3,2.3-1,3.2
		c-0.7,0.8-1.7,1.3-2.9,1.5c0.5,0.3,0.9,0.6,1.2,1c0.6,0.7,1,1.4,1.5,2.2l2.5,4.7h-2.3l-1.9-3.6c-0.7-1.4-1.3-2.3-1.6-2.8
		c-0.4-0.5-0.7-0.8-1.1-1c-0.3-0.2-0.8-0.3-1.5-0.3h-2.2v7.6H557.7z M559.6,505.5h4c0.9,0,1.5-0.1,2-0.3s0.8-0.5,1.1-1
		s0.4-1,0.4-1.6c0-0.9-0.3-1.5-0.8-2s-1.3-0.7-2.3-0.7h-4.5V505.5z"/>
	<path class="st3" d="M570.4,515.1l5.4-17.2h2l5.8,17.2h-2.1l-1.6-5.2h-5.9l-1.5,5.2H570.4z M574.4,508h4.8l-1.5-4.8
		c-0.5-1.5-0.8-2.6-1-3.6c-0.2,1.1-0.4,2.2-0.8,3.3L574.4,508z"/>
	<path class="st3" d="M587.2,515.1v-15.2h-4.6v-2h11.2v2h-4.7v15.2H587.2z"/>
	<path class="st3" d="M594.8,506.7c0-2.9,0.6-5.2,1.9-6.8s2.9-2.4,4.8-2.4c1.2,0,2.4,0.4,3.4,1.1s1.8,1.7,2.4,3.1s0.9,2.9,0.9,4.8
		c0,2.5-0.6,4.6-1.7,6.2c-1.3,1.8-2.9,2.6-5,2.6c-2.1,0-3.8-0.9-5-2.7C595.3,511,594.8,509,594.8,506.7z M596.7,506.8
		c0,2.1,0.5,3.8,1.4,4.9c0.9,1.2,2.1,1.8,3.4,1.8c1.4,0,2.5-0.6,3.4-1.8c0.9-1.2,1.4-2.9,1.4-5.2c0-1.5-0.2-2.8-0.7-4
		c-0.4-0.9-0.9-1.6-1.7-2.1c-0.7-0.5-1.5-0.8-2.4-0.8c-1.4,0-2.6,0.6-3.5,1.8S596.7,504.3,596.7,506.8z"/>
	<path class="st3" d="M610.6,515.1v-17.2h6.2c1.3,0,2.3,0.2,2.9,0.5s1.1,0.9,1.5,1.6c0.4,0.7,0.6,1.6,0.6,2.6c0,1.3-0.3,2.3-1,3.2
		c-0.7,0.8-1.7,1.3-2.9,1.5c0.5,0.3,0.9,0.6,1.2,1c0.6,0.7,1,1.4,1.5,2.2l2.5,4.7h-2.3l-1.9-3.6c-0.7-1.4-1.3-2.3-1.6-2.8
		c-0.4-0.5-0.7-0.8-1.1-1c-0.3-0.2-0.8-0.3-1.5-0.3h-2.2v7.6H610.6z M612.5,505.5h4c0.9,0,1.5-0.1,2-0.3s0.8-0.5,1.1-1
		s0.4-1,0.4-1.6c0-0.9-0.3-1.5-0.8-2s-1.3-0.7-2.3-0.7h-4.5V505.5z"/>
</g>
</svg>
